<svg xmlns="http://www.w3.org/2000/svg" viewBox="0 0 16 17" width="16" height="17">
	<style>
		tspan { white-space:pre }
		.shp0 { fill: #787878 } 
	</style>
	<g id="HERO IMAGE">
		<g id="Secured">
			<path id="Shield-icon" class="shp0" d="M14.98 4.38C14.97 3.92 14.97 3.48 14.97 3.07C14.97 2.74 14.7 2.47 14.38 2.47C11.89 2.47 9.99 1.74 8.41 0.17C8.18 -0.06 7.82 -0.06 7.59 0.17C6.01 1.74 4.11 2.47 1.62 2.47C1.3 2.47 1.03 2.74 1.03 3.07C1.03 3.48 1.03 3.92 1.02 4.38C0.94 8.65 0.83 14.5 7.81 16.97C7.87 16.99 7.94 17 8 17C8.06 17 8.13 16.99 8.19 16.97C15.17 14.5 15.06 8.65 14.98 4.38ZM8 15.77C2.01 13.55 2.1 8.69 2.18 4.4C2.19 4.14 2.19 3.89 2.2 3.65C4.53 3.55 6.4 2.82 8 1.4C9.6 2.82 11.47 3.55 13.8 3.65C13.81 3.89 13.81 4.14 13.82 4.4C13.9 8.69 13.99 13.55 8 15.77ZM10.01 6.43L7.19 9.3L5.99 8.08C5.76 7.85 5.39 7.85 5.17 8.08C4.94 8.31 4.94 8.69 5.17 8.92L6.78 10.57C6.89 10.68 7.04 10.74 7.19 10.74C7.34 10.74 7.49 10.68 7.61 10.57L10.83 7.27C11.06 7.04 11.06 6.67 10.83 6.43C10.61 6.2 10.24 6.2 10.01 6.43Z" />
		</g>
	</g>
</svg>